<?xml version="1.0" encoding="UTF-8" standalone="no"?>
<svg
   xmlns:dc="http://purl.org/dc/elements/1.1/"
   xmlns:cc="http://creativecommons.org/ns#"
   xmlns:rdf="http://www.w3.org/1999/02/22-rdf-syntax-ns#"
   xmlns:svg="http://www.w3.org/2000/svg"
   xmlns="http://www.w3.org/2000/svg"
   xmlns:sodipodi="http://sodipodi.sourceforge.net/DTD/sodipodi-0.dtd"
   xmlns:inkscape="http://www.inkscape.org/namespaces/inkscape"
   id="Capa_1"
   enable-background="new 0 0 512.009 512.009"
   height="512"
   viewBox="0 0 512.009 512.009"
   width="512"
   version="1.1"
   sodipodi:docname="biceps.svg"
   inkscape:version="1.0.2 (1.0.2+r75+1)">
  <metadata
     id="metadata9">
    <rdf:RDF>
      <cc:Work
         rdf:about="">
        <dc:format>image/svg+xml</dc:format>
        <dc:type
           rdf:resource="http://purl.org/dc/dcmitype/StillImage" />
      </cc:Work>
    </rdf:RDF>
  </metadata>
  <defs
     id="defs7" />
  <sodipodi:namedview
     pagecolor="#ffffff"
     bordercolor="#666666"
     borderopacity="1"
     objecttolerance="10"
     gridtolerance="10"
     guidetolerance="10"
     inkscape:pageopacity="0"
     inkscape:pageshadow="2"
     inkscape:window-width="1848"
     inkscape:window-height="1043"
     id="namedview5"
     showgrid="false"
     inkscape:zoom="1.6835938"
     inkscape:cx="256"
     inkscape:cy="256"
     inkscape:window-x="1992"
     inkscape:window-y="0"
     inkscape:window-maximized="1"
     inkscape:current-layer="Capa_1"
     inkscape:document-rotation="0" />
  <path
     d="m428.952 23.266c-7.617-14.355-22.69-23.262-39.346-23.262h-133.597c-24.814 0-45 20.186-45 45v60c0 24.814 20.186 45 45 45h45v-60h-15c-8.291 0-15-6.709-15-15s6.709-15 15-15h31c8.291 0 15 6.709 15 15v75h15c8.276 0 15 6.724 15 15v119.279c17.692 4.828 35.087 10.992 51.709 19.303 7.412 3.706 10.415 12.715 6.709 20.127-3.649 7.318-12.612 10.441-20.127 6.709-70.928-35.479-156.654-35.479-227.582 0-7.412 3.677-16.436.703-20.127-6.709-3.706-7.412-.703-16.421 6.709-20.127 22.456-11.228 46.201-18.915 70.426-23.787-34.081-32.628-81.425-45.163-128.258-33.444-47.534 11.88-86.518 50.391-97.782 98.174-9.595 41.382-.249 83.789 25.635 116.367 25.811 32.476 65.336 51.108 106.688 51.108 138.297 0 252.605-33.331 367.738-91.597 5.068-2.549 8.262-7.734 8.262-13.403v-65.098c0-111.298-28.785-222.912-83.057-318.64z"
     id="path2" />
  <path
     style="fill:#ff6d00;fill-opacity:1;stroke:#000000;stroke-width:0"
     d="m 128,511.3072 c -12.26258,-0.62859 -24.44405,-3.00379 -36.438886,-7.10501 -8.457753,-2.89184 -22.872697,-9.89461 -30.085476,-14.6155 C 33.110648,471.02128 12.743281,442.40775 4.4474514,409.46942 1.6592405,398.39892 0.59338763,389.1546 0.59718599,376.07544 0.6074659,340.67792 12.955034,309.74385 37.12297,284.56825 c 23.173245,-24.13944 52.545978,-38.30055 86.33671,-41.62444 32.57256,-3.20406 66.38524,6.36498 93.24937,26.38972 3.15248,2.34987 7.17274,5.60109 8.93391,7.22492 l 3.20212,2.95241 -12.40862,3.06577 c -6.82474,1.68617 -16.55154,4.43955 -21.61511,6.1186 -15.76523,5.22765 -35.24597,13.62568 -39.00719,16.81576 -4.25919,3.61244 -6.02234,10.56116 -4.22407,16.64748 0.96395,3.26256 5.88447,8.18308 9.14704,9.14704 5.33607,1.57659 8.54582,1.02873 17.04234,-2.90889 26.62723,-12.34011 51.12205,-19.20228 81.78434,-22.91172 12.08027,-1.46144 41.88246,-1.45381 54.05104,0.0138 30.42741,3.66986 55.45589,10.69311 81.79816,22.95342 6.89515,3.20917 8.07381,3.57508 11.49907,3.56987 2.75546,-0.004 4.65379,-0.39571 6.82838,-1.4083 9.27336,-4.3181 11.37991,-17.11967 4.02707,-24.47251 -4.12372,-4.12371 -26.61365,-13.5374 -46.83482,-19.60381 l -8.31554,-2.49468 -0.29698,-61.68724 -0.29699,-61.68727 -1.27671,-2.38365 c -1.62513,-3.03415 -4.00583,-5.41254 -7.03105,-7.02422 -2.09417,-1.11567 -3.55584,-1.29496 -12.03563,-1.47631 l -9.65197,-0.20643 -0.0131,-39.29924 c -0.0145,-43.878713 0.19237,-41.620021 -4.22073,-46.071083 -4.08383,-4.118945 -4.52072,-4.188974 -26.22614,-4.203514 -21.37157,-0.01431 -21.54707,0.01045 -25.65884,3.62063 -6.76038,5.935695 -6.68179,17.441583 0.15765,23.079225 3.54883,2.925225 6.46843,3.579445 15.97413,3.579445 h 8.50672 v 29.698377 29.69837 h -24.37771 c -19.98005,0 -25.20337,-0.17054 -28.95468,-0.9454 -9.20921,-1.90221 -16.85492,-6.2612 -23.64756,-13.48198 -4.9599,-5.27253 -7.49414,-9.42244 -9.95626,-16.30378 l -1.86193,-5.20387 -0.1739,-37.041175 c -0.16702,-35.575011 -0.12612,-37.23249 1.03344,-41.874708 4.0468,-16.20122 16.19868,-28.6028499 32.52932,-33.197877 4.61675,-1.29903475 4.74728,-1.30172785 72.63434,-1.49866473 42.78976,-0.1241309 70.47574,0.0257176 74.66056,0.40409475 14.17449,1.28160908 25.64207,7.55837338 33.10052,18.11753098 5.55528,7.864774 22.333,40.600011 31.20136,60.877414 28.70821,65.641005 46.33758,135.092405 52.55906,207.057935 1.83072,21.17651 2.28116,36.46858 2.34442,79.59164 0.0714,48.67208 0.29407,45.7378 -3.82713,50.43159 -2.05166,2.33672 -13.12387,8.182 -33.82533,17.85719 -93.50749,43.70236 -181.35939,67.55515 -275.60093,74.82877 -23.60717,1.82202 -55.99522,2.74632 -70.38515,2.00868 z"
     id="path840"
     transform="scale(1.0000176)" />
</svg>
