<?xml version="1.0" encoding="UTF-8" standalone="no"?>
<svg
   xmlns:dc="http://purl.org/dc/elements/1.1/"
   xmlns:cc="http://creativecommons.org/ns#"
   xmlns:rdf="http://www.w3.org/1999/02/22-rdf-syntax-ns#"
   xmlns:svg="http://www.w3.org/2000/svg"
   xmlns="http://www.w3.org/2000/svg"
   xmlns:sodipodi="http://sodipodi.sourceforge.net/DTD/sodipodi-0.dtd"
   xmlns:inkscape="http://www.inkscape.org/namespaces/inkscape"
   height="512pt"
   viewBox="0 -44 512 511"
   width="512pt"
   version="1.1"
   id="svg8"
   sodipodi:docname="briefcase.svg"
   inkscape:version="1.0.2 (1.0.2+r75+1)">
  <metadata
     id="metadata14">
    <rdf:RDF>
      <cc:Work
         rdf:about="">
        <dc:format>image/svg+xml</dc:format>
        <dc:type
           rdf:resource="http://purl.org/dc/dcmitype/StillImage" />
      </cc:Work>
    </rdf:RDF>
  </metadata>
  <defs
     id="defs12" />
  <sodipodi:namedview
     pagecolor="#ffffff"
     bordercolor="#666666"
     borderopacity="1"
     objecttolerance="10"
     gridtolerance="10"
     guidetolerance="10"
     inkscape:pageopacity="0"
     inkscape:pageshadow="2"
     inkscape:window-width="1848"
     inkscape:window-height="1043"
     id="namedview10"
     showgrid="false"
     inkscape:zoom="1.2626953"
     inkscape:cx="341.33333"
     inkscape:cy="341.33333"
     inkscape:window-x="1992"
     inkscape:window-y="0"
     inkscape:window-maximized="1"
     inkscape:current-layer="svg8"
     inkscape:document-rotation="0" />
  <path
     d="m340.617188 204.101562v12.941407c0 30.59375-24.890626 55.488281-55.488282 55.488281h-58.261718c-30.59375 0-55.488282-24.890625-55.488282-55.488281v-12.941407h-171.378906v167.742188c0 28.140625 22.894531 51.035156 51.035156 51.035156h409.929688c28.140625 0 51.035156-22.894531 51.035156-51.035156v-167.742188zm0 0"
     id="path2" />
  <path
     d="m201.777344 217.042969c0 13.835937 11.253906 25.089843 25.089844 25.089843h58.261718c13.835938 0 25.09375-11.253906 25.09375-25.089843v-12.941407h-108.445312zm0 0"
     id="path4" />
  <path
     d="m512 173.707031v-45.136719c0-28.140624-22.894531-51.035156-51.035156-51.035156h-111.617188v-37.90625c0-21.578125-17.550781-39.128906-39.128906-39.128906h-108.4375c-21.578125 0-39.128906 17.550781-39.128906 39.128906v37.90625h-111.617188c-28.140625 0-51.035156 22.894532-51.035156 51.035156v45.132813h512zm-318.953125-134.078125c0-4.816406 3.917969-8.734375 8.734375-8.734375h108.4375c4.816406 0 8.734375 3.917969 8.734375 8.734375v37.90625h-125.90625zm0 0"
     id="path6" />
  <path
     style="fill:#ff6d00;stroke:#000000;stroke-width:0;fill-opacity:1"
     d="M 0.19791196,256 C 0.62399305,216.23465 0.78681871,215.05959 7.8521888,200.76102 17.42445,181.38913 34.455962,168.51122 56.100603,164.27931 c 4.805968,-0.93966 19.216126,-1.13623 83.294037,-1.13623 h 77.48269 l 0.31306,-29.50039 c 0.34827,-32.81917 0.50336,-33.994096 5.93222,-44.943541 2.20604,-4.449337 4.63854,-7.632292 9.69463,-12.685526 7.38891,-7.384745 12.62897,-10.590024 22.19281,-13.575062 l 5.93968,-1.853874 h 80.77958 80.77958 l 6.33566,2.157616 c 3.48461,1.186689 8.60754,3.503162 11.38429,5.147719 6.90462,4.089328 15.64953,13.543245 19.33195,20.899322 5.40319,10.793526 5.56725,12.037436 5.91548,44.853346 l 0.31307,29.50039 h 77.4069 c 50.599,0 79.03435,0.28825 82.10611,0.83233 25.68405,4.5492 46.45039,22.86742 54.09801,47.72046 2.52681,8.21156 3.26492,19.65727 3.26564,50.63978 l 6.7e-4,28.31246 H 341.24666 -0.17333841 Z M 425.27778,135.62258 c -0.003,-25.89832 -0.0941,-27.66994 -1.54889,-30.0559 -0.85026,-1.39448 -2.71993,-3.17638 -4.15481,-3.95979 -2.45991,-1.34303 -6.92768,-1.42437 -78.24075,-1.42437 -71.31307,0 -75.78084,0.0813 -78.24074,1.42437 -1.43488,0.78341 -3.30455,2.56531 -4.15481,3.95979 -1.45481,2.38596 -1.54611,4.15758 -1.54889,30.0559 l -0.003,27.5205 h 83.94741 83.94741 l -0.003,-27.5205 z"
     id="path839"
     transform="matrix(0.74999998,0,0,0.74999998,0,-44.5)" />
  <path
     style="fill:#ff6d00;stroke:#000000;stroke-width:0;fill-opacity:1"
     d="m 293.83513,380.45355 c -11.6231,-3.12341 -21.09295,-13.32084 -23.6787,-25.49794 -0.49013,-2.30822 -0.89116,-8.45578 -0.89116,-13.66126 v -9.4645 h 72.06806 72.06806 v 9.4645 c 0,5.20548 -0.40102,11.35304 -0.89116,13.66126 -2.6414,12.4392 -12.02442,22.41376 -24.02387,25.5384 -6.80571,1.77219 -88.03503,1.73747 -94.65123,-0.0405 z"
     id="path841"
     transform="matrix(0.74999998,0,0,0.74999998,0,-44.5)" />
  <path
     style="fill:#ff6d00;stroke:#000000;stroke-width:0;fill-opacity:1"
     d="M 54.238254,621.31828 C 28.97626,615.79997 9.0047978,596.40726 2.1954977,570.78369 L 0.46429894,564.26914 0.2000934,448.0495 -0.06411222,331.82985 H 114.0097 228.08353 v 11.37964 c 0,17.1329 2.14302,27.22434 8.45897,39.83314 8.82315,17.61404 27.16283,32.3131 46.97799,37.65239 6.68832,1.8022 7.06036,1.81387 57.81284,1.81387 50.75248,0 51.12453,-0.0116 57.81284,-1.81387 19.81517,-5.33929 38.15484,-20.03835 46.97799,-37.65239 6.31596,-12.6088 8.45898,-22.70024 8.45898,-39.83314 v -11.37964 h 114.07382 114.07382 l -0.27057,116.21965 c -0.24924,107.05768 -0.37839,116.62546 -1.63831,121.36736 -2.43706,9.17224 -5.4188,15.9386 -10.12262,22.97088 -8.41698,12.58351 -20.64119,21.926 -35.35716,27.02207 l -7.71644,2.67217 -284.31245,0.13832 C 111.06565,622.33329 58.128634,622.1681 54.238254,621.31828 Z"
     id="path843"
     transform="matrix(0.74999998,0,0,0.74999998,0,-44.5)" />
</svg>
