<?xml version="1.0" encoding="UTF-8" standalone="no"?>
<svg
   xmlns:dc="http://purl.org/dc/elements/1.1/"
   xmlns:cc="http://creativecommons.org/ns#"
   xmlns:rdf="http://www.w3.org/1999/02/22-rdf-syntax-ns#"
   xmlns:svg="http://www.w3.org/2000/svg"
   xmlns="http://www.w3.org/2000/svg"
   xmlns:sodipodi="http://sodipodi.sourceforge.net/DTD/sodipodi-0.dtd"
   xmlns:inkscape="http://www.inkscape.org/namespaces/inkscape"
   version="1.1"
   id="Capa_1"
   x="0px"
   y="0px"
   viewBox="0 0 330 330"
   style="enable-background:new 0 0 330 330;"
   xml:space="preserve"
   sodipodi:docname="download.svg"
   inkscape:version="1.0.2 (1.0.2+r75+1)"><metadata
   id="metadata45"><rdf:RDF><cc:Work
       rdf:about=""><dc:format>image/svg+xml</dc:format><dc:type
         rdf:resource="http://purl.org/dc/dcmitype/StillImage" /></cc:Work></rdf:RDF></metadata><defs
   id="defs43" /><sodipodi:namedview
   pagecolor="#ffffff"
   bordercolor="#666666"
   borderopacity="1"
   objecttolerance="10"
   gridtolerance="10"
   guidetolerance="10"
   inkscape:pageopacity="0"
   inkscape:pageshadow="2"
   inkscape:window-width="1848"
   inkscape:window-height="1043"
   id="namedview41"
   showgrid="false"
   inkscape:zoom="2.6121212"
   inkscape:cx="165"
   inkscape:cy="165"
   inkscape:window-x="1992"
   inkscape:window-y="0"
   inkscape:window-maximized="1"
   inkscape:current-layer="Capa_1"
   inkscape:document-rotation="0" />
<g
   id="g8"
   style="fill:#000000;fill-opacity:0">
	<path
   d="M165,0C74.019,0,0,74.018,0,165c0,90.98,74.019,165,165,165s165-74.02,165-165C330,74.018,255.981,0,165,0z M165,300   c-74.439,0-135-60.561-135-135S90.561,30,165,30s135,60.561,135,135S239.439,300,165,300z"
   id="path2"
   style="fill:#000000;fill-opacity:0" />
	<path
   d="M211.667,127.121l-31.669,31.666V75c0-8.285-6.716-15-15-15c-8.284,0-15,6.715-15,15v83.787l-31.665-31.666   c-5.857-5.857-15.355-5.857-21.213,0c-5.858,5.859-5.858,15.355,0,21.213l57.271,57.271c2.929,2.93,6.768,4.395,10.606,4.395   c3.838,0,7.678-1.465,10.607-4.393l57.275-57.271c5.857-5.857,5.858-15.355,0.001-21.215   C227.021,121.264,217.524,121.264,211.667,127.121z"
   id="path4"
   style="fill:#000000;fill-opacity:0" />
	<path
   d="M195,240h-60c-8.284,0-15,6.715-15,15c0,8.283,6.716,15,15,15h60c8.284,0,15-6.717,15-15C210,246.715,203.284,240,195,240z   "
   id="path6"
   style="fill:#000000;fill-opacity:0" />
</g>
<g
   id="g10">
</g>
<g
   id="g12">
</g>
<g
   id="g14">
</g>
<g
   id="g16">
</g>
<g
   id="g18">
</g>
<g
   id="g20">
</g>
<g
   id="g22">
</g>
<g
   id="g24">
</g>
<g
   id="g26">
</g>
<g
   id="g28">
</g>
<g
   id="g30">
</g>
<g
   id="g32">
</g>
<g
   id="g34">
</g>
<g
   id="g36">
</g>
<g
   id="g38">
</g>
<path
   style="fill:#ff6d00;stroke:#000000;stroke-width:0;fill-opacity:1"
   d="M 162.08975,320.06743 C 139.94824,319.569 117.45617,314.16936 97.341105,304.52331 48.771537,281.2321 15.326142,235.80939 8.0212789,183.2167 6.1498472,169.74298 6.1558534,153.92888 8.0377056,139.96595 13.971988,95.934849 39.87688,54.954585 77.531755,30.029789 100.29718,14.960729 125.44405,6.2099883 153.00348,3.766741 c 6.64583,-0.5891776 20.90728,-0.4914208 28.19157,0.1932427 71.4344,6.7142403 130.17713,60.7162583 142.23801,130.7589663 1.85622,10.77984 2.30995,17.18262 2.10646,29.72508 -0.23157,14.27334 -1.49519,24.02313 -4.72296,36.44106 -9.71939,37.39262 -32.98643,70.2151 -65.06535,91.78674 -27.92528,18.7785 -59.97817,28.15384 -93.66146,27.3956 z m 19.95072,-29.34236 c 38.97899,-5.05513 72.36611,-25.71681 93.72206,-58.00006 11.22034,-16.9615 18.05707,-35.80039 20.63847,-56.87014 0.30326,-2.47524 0.49608,-7.98341 0.49608,-14.17152 0,-10.64924 -0.31667,-14.51718 -1.89852,-23.18977 -7.10883,-38.974562 -32.08489,-72.962019 -67.26668,-91.536615 -14.59491,-7.70553 -29.83011,-12.374131 -47.46958,-14.546334 -5.21236,-0.641876 -23.00315,-0.631758 -28.37143,0.01613 -21.51211,2.596278 -40.42437,9.412682 -57.855471,20.852395 -29.980983,19.675993 -50.263724,50.164004 -56.690563,85.214424 -1.584435,8.64113 -1.903302,12.5262 -1.903302,23.18977 0,10.66357 0.318867,14.54864 1.903302,23.18976 9.153245,49.91958 46.680069,89.9796 96.188044,102.68109 5.47437,1.40447 13.1704,2.7884 18.35799,3.30121 2.24376,0.2218 4.66368,0.4688 5.37759,0.54889 3.14364,0.35269 20.48062,-0.12268 24.77201,-0.67923 z"
   id="path870" /><path
   style="fill:#ff6d00;fill-opacity:1;stroke:#000000;stroke-width:0"
   d="m 155.96523,299.53364 c -4.49739,-0.31026 -12.21299,-1.37119 -17.29877,-2.37866 C 127.35315,294.91386 117.354,291.5456 106.71873,286.39324 92.34524,279.42988 81.560396,271.78462 70.236933,260.53169 58.913507,249.27879 51.172393,238.57934 44.260977,224.62878 34.338905,204.60128 29.85594,184.45629 30.344128,162.09095 30.779896,142.1271 35.011341,124.45984 43.606228,106.71863 50.564883,92.354856 58.183829,81.605923 69.470461,70.228948 80.757092,58.851973 91.444942,51.147574 105.75278,44.074626 c 13.45567,-6.651688 26.67488,-10.65929 42.44324,-12.867302 7.05036,-0.987248 25.48234,-1.060723 32.54035,-0.129715 26.08136,3.440342 48.09433,12.719832 68.64257,28.936015 5.25679,4.148529 15.54548,14.315031 19.64202,19.408738 16.61419,20.658378 26.10316,42.578548 29.77118,68.773558 0.53447,3.81688 0.70699,7.60141 0.74154,16.26748 0.0492,12.34494 -0.31106,16.41226 -2.38,26.86962 -2.23635,11.30348 -5.60634,21.30904 -10.76034,31.94772 -6.96159,14.36985 -14.55618,25.08075 -25.86941,36.48455 -11.19927,11.2889 -21.93475,19.05696 -35.89505,25.97321 -15.65984,7.75822 -31.25525,12.122 -48.52563,13.57799 -4.5187,0.38096 -15.97306,0.50447 -20.13802,0.21715 z m 42.45254,-29.81835 c 7.54312,-1.63195 12.62072,-8.34871 11.99615,-15.86879 -0.51668,-6.22102 -4.00492,-10.94546 -9.78402,-13.25135 l -2.21718,-0.88467 -33.11459,0.132 -33.11459,0.132 -2.19852,0.89795 c -5.71568,2.33447 -9.25742,7.20381 -9.69808,13.33334 -0.52981,7.36964 4.30531,13.8809 11.63295,15.66562 2.61626,0.63721 63.49153,0.4943 66.49788,-0.1561 z m -29.2091,-60.15134 c 1.25155,-0.33132 3.05047,-1.107 3.99761,-1.72374 0.94714,-0.61674 15.2263,-14.74857 31.73147,-31.40407 34.46718,-34.78111 32.14434,-31.96731 32.11668,-38.90487 -0.0148,-3.70362 -0.11,-4.21498 -1.21171,-6.50335 -3.53948,-7.35205 -11.64748,-10.48563 -19.5426,-7.5528 -2.14222,0.79578 -3.20626,1.78487 -19.13168,17.78392 l -16.86331,16.94128 -0.27762,-43.23972 -0.27763,-43.239711 -0.89794,-2.198514 c -2.45528,-6.011476 -7.8219,-9.619053 -14.27099,-9.593345 -6.4491,0.02571 -11.78678,3.675955 -14.19406,9.706814 l -0.88039,2.205603 0.0671,43.240553 0.0671,43.24056 -16.99783,-16.8063 c -16.05247,-15.87159 -17.12436,-16.85216 -19.27286,-17.63083 -7.91825,-2.86979 -16.001018,0.32832 -19.481763,7.70836 -1.083838,2.29801 -1.17449,2.80767 -1.15843,6.5128 0.02973,6.8802 -2.453797,3.92075 32.273523,38.45676 16.72043,16.62832 31.18369,30.73426 32.14057,31.34652 3.35162,2.14457 7.87128,2.76421 12.06474,1.65408 z"
   id="path872" /></svg>
