<?xml version="1.0" encoding="UTF-8" standalone="no"?>
<svg
   xmlns:dc="http://purl.org/dc/elements/1.1/"
   xmlns:cc="http://creativecommons.org/ns#"
   xmlns:rdf="http://www.w3.org/1999/02/22-rdf-syntax-ns#"
   xmlns:svg="http://www.w3.org/2000/svg"
   xmlns="http://www.w3.org/2000/svg"
   xmlns:sodipodi="http://sodipodi.sourceforge.net/DTD/sodipodi-0.dtd"
   xmlns:inkscape="http://www.inkscape.org/namespaces/inkscape"
   enable-background="new 0 0 24 24"
   height="512"
   viewBox="0 0 24 24"
   width="512"
   version="1.1"
   id="svg4"
   sodipodi:docname="github.svg"
   inkscape:version="1.0.2 (1.0.2+r75+1)">
  <metadata
     id="metadata10">
    <rdf:RDF>
      <cc:Work
         rdf:about="">
        <dc:format>image/svg+xml</dc:format>
        <dc:type
           rdf:resource="http://purl.org/dc/dcmitype/StillImage" />
      </cc:Work>
    </rdf:RDF>
  </metadata>
  <defs
     id="defs8" />
  <sodipodi:namedview
     pagecolor="#ffffff"
     bordercolor="#666666"
     borderopacity="1"
     objecttolerance="10"
     gridtolerance="10"
     guidetolerance="10"
     inkscape:pageopacity="0"
     inkscape:pageshadow="2"
     inkscape:window-width="1848"
     inkscape:window-height="1043"
     id="namedview6"
     showgrid="false"
     inkscape:zoom="1.6835938"
     inkscape:cx="256"
     inkscape:cy="256"
     inkscape:window-x="1992"
     inkscape:window-y="0"
     inkscape:window-maximized="1"
     inkscape:current-layer="svg4"
     inkscape:document-rotation="0" />
  <path
     d="m12 .5c-6.63 0-12 5.28-12 11.792 0 5.211 3.438 9.63 8.205 11.188.6.111.82-.254.82-.567 0-.28-.01-1.022-.015-2.005-3.338.711-4.042-1.582-4.042-1.582-.546-1.361-1.335-1.725-1.335-1.725-1.087-.731.084-.716.084-.716 1.205.082 1.838 1.215 1.838 1.215 1.07 1.803 2.809 1.282 3.495.981.108-.763.417-1.282.76-1.577-2.665-.295-5.466-1.309-5.466-5.827 0-1.287.465-2.339 1.235-3.164-.135-.298-.54-1.497.105-3.121 0 0 1.005-.316 3.3 1.209.96-.262 1.98-.392 3-.398 1.02.006 2.04.136 3 .398 2.28-1.525 3.285-1.209 3.285-1.209.645 1.624.24 2.823.12 3.121.765.825 1.23 1.877 1.23 3.164 0 4.53-2.805 5.527-5.475 5.817.42.354.81 1.077.81 2.182 0 1.578-.015 2.846-.015 3.229 0 .309.21.678.825.56 4.801-1.548 8.236-5.97 8.236-11.173 0-6.512-5.373-11.792-12-11.792z"
     fill="#212121"
     id="path2" />
  <path
     style="fill:#ff6d00;stroke:#000000;stroke-width:0;fill-opacity:1"
     d="m 176.40835,500.68356 c -1.47007,-0.24113 -6.28574,-1.7883 -10.70149,-3.43815 C 83.461963,466.51635 22.603172,396.2306 5.4073377,312.11568 c -6.5719581,-32.14731 -6.5719581,-67.61073 0,-99.75804 C 19.143539,145.16582 61.076516,85.869308 120.96582,48.948925 137.16336,38.963511 158.84985,29.046628 177.2993,23.188534 213.85253,11.582103 252.9306,8.2479337 291.63805,13.43307 c 41.89641,5.612321 84.44999,23.011968 118.37186,48.400831 21.55114,16.129972 40.94034,35.946315 56.10535,57.341329 27.44498,38.71977 43.42246,85.43144 45.1749,132.07303 1.37973,36.72196 -3.97561,68.85768 -16.92614,101.56845 -25.38034,64.10629 -76.63338,115.34614 -141.25033,141.21396 -14.45226,5.78561 -18.25338,6.88324 -22.62226,6.53254 -4.54894,-0.36514 -7.05539,-1.72625 -9.44377,-5.12837 l -1.79012,-2.54994 -0.005,-40.7812 c -0.006,-43.50106 -0.0917,-45.06172 -3.0302,-55.20515 -2.56493,-8.85385 -6.16718,-15.58119 -11.10964,-20.74769 -2.77278,-2.89846 -2.9573,-2.75935 4.93899,-3.72371 8.22076,-1.004 21.79235,-3.79662 30.15191,-6.20435 45.24767,-13.03242 70.45288,-42.87292 77.04646,-91.21584 1.32152,-9.6891 1.83216,-29.70926 0.95446,-37.41995 -2.22805,-19.57358 -9.12913,-36.06995 -21.49687,-51.38622 l -3.84346,-4.75976 1.34153,-4.41152 c 2.60714,-8.57335 3.34317,-15.22675 2.98395,-26.97382 -0.36815,-12.03955 -1.45675,-18.38891 -4.97341,-29.00789 l -2.10564,-6.35823 -2.61927,-0.39279 c -6.33952,-0.95067 -19.82936,1.75556 -31.11049,6.24114 -10.16788,4.04294 -21.90569,10.35826 -35.73909,19.22879 -0.74379,0.47695 -3.04726,0.16471 -9.2065,-1.24798 -37.49708,-8.60039 -78.48357,-8.41836 -113.7427,0.50513 -2.50454,0.63386 -4.96763,1.15247 -5.47351,1.15247 -0.50589,0 -3.13421,-1.42576 -5.84071,-3.16835 -20.73133,-13.34794 -41.59835,-21.64774 -57.0768,-22.70214 -7.90919,-0.53878 -8.05133,-0.44252 -10.61322,7.18798 -6.39259,19.04005 -6.92272,39.77849 -1.43798,56.25304 1.32125,3.96863 1.32317,4.0224 0.18025,5.04872 -0.63536,0.57055 -3.24172,3.81251 -5.7919,7.20435 -8.11055,10.78735 -14.087958,24.04853 -17.349737,38.49125 -1.195757,5.29466 -1.316024,7.40803 -1.311937,23.05406 0.0048,18.51977 0.513229,23.85509 3.57316,37.49832 9.290914,41.42518 35.786874,67.51168 80.155504,78.91679 6.66969,1.71447 19.79233,4.13832 28.86648,5.33185 l 2.73191,0.35934 -2.06338,2.20439 c -3.20753,3.42675 -7.08379,9.69006 -9.07574,14.66471 -1.95375,4.87925 -4.12517,12.73002 -4.12517,14.91453 0,1.0951 -0.63562,1.58504 -3.39647,2.61801 -25.47306,9.53069 -46.46739,5.94024 -62.08785,-10.61827 -2.1883,-2.31971 -5.98234,-7.26476 -8.4312,-10.98901 -9.33743,-14.20038 -20.593731,-22.72921 -33.827678,-25.63102 -9.967072,-2.18548 -19.321971,0.52879 -17.846366,5.17801 0.709049,2.23402 5.189738,6.50817 10.656853,10.16564 11.734962,7.85061 20.672677,19.59908 27.542081,36.20356 3.30667,7.99278 7.03132,13.52346 13.10021,19.4523 7.90918,7.72665 16.7653,12.43637 29.14889,15.5015 5.06265,1.25308 6.98594,1.39656 18.70998,1.39586 10.05729,-6e-4 14.41234,-0.24832 18.90658,-1.07537 3.21162,-0.591 5.92413,-0.98485 6.0278,-0.87519 0.10367,0.10965 0.28249,10.35621 0.39736,22.77013 0.20712,22.38239 0.19784,22.59137 -1.11099,25.03898 -2.62747,4.91353 -7.95783,7.17325 -14.42029,6.11326 z"
     id="path835"
     transform="scale(0.046875)" />
</svg>
