<?xml version="1.0" encoding="UTF-8" standalone="no"?>
<svg
   xmlns:dc="http://purl.org/dc/elements/1.1/"
   xmlns:cc="http://creativecommons.org/ns#"
   xmlns:rdf="http://www.w3.org/1999/02/22-rdf-syntax-ns#"
   xmlns:svg="http://www.w3.org/2000/svg"
   xmlns="http://www.w3.org/2000/svg"
   xmlns:sodipodi="http://sodipodi.sourceforge.net/DTD/sodipodi-0.dtd"
   xmlns:inkscape="http://www.inkscape.org/namespaces/inkscape"
   id="Bold"
   enable-background="new 0 0 24 24"
   height="512"
   viewBox="0 0 24 24"
   width="512"
   version="1.1"
   sodipodi:docname="linkedin.svg"
   inkscape:version="1.0.2 (1.0.2+r75+1)">
  <metadata
     id="metadata13">
    <rdf:RDF>
      <cc:Work
         rdf:about="">
        <dc:format>image/svg+xml</dc:format>
        <dc:type
           rdf:resource="http://purl.org/dc/dcmitype/StillImage" />
      </cc:Work>
    </rdf:RDF>
  </metadata>
  <defs
     id="defs11" />
  <sodipodi:namedview
     pagecolor="#ffffff"
     bordercolor="#666666"
     borderopacity="1"
     objecttolerance="10"
     gridtolerance="10"
     guidetolerance="10"
     inkscape:pageopacity="0"
     inkscape:pageshadow="2"
     inkscape:window-width="1920"
     inkscape:window-height="1016"
     id="namedview9"
     showgrid="false"
     inkscape:zoom="1.6835938"
     inkscape:cx="256"
     inkscape:cy="303.5174"
     inkscape:window-x="0"
     inkscape:window-y="27"
     inkscape:window-maximized="1"
     inkscape:current-layer="Bold" />
  <path
     d="m23.994 24v-.001h.006v-8.802c0-4.306-.927-7.623-5.961-7.623-2.42 0-4.044 1.328-4.707 2.587h-.07v-2.185h-4.773v16.023h4.97v-7.934c0-2.089.396-4.109 2.983-4.109 2.549 0 2.587 2.384 2.587 4.243v7.801z"
     id="path2" />
  <path
     d="m.396 7.977h4.976v16.023h-4.976z"
     id="path4" />
  <path
     d="m2.882 0c-1.591 0-2.882 1.291-2.882 2.882s1.291 2.909 2.882 2.909 2.882-1.318 2.882-2.909c-.001-1.591-1.292-2.882-2.882-2.882z"
     id="path6" />
  <path
     style="fill:#ff6d00;stroke-width:12.6711;stroke-linejoin:bevel"
     d="m 383.29351,158.51508 c -12.21225,-0.089 -24.45039,1.22373 -36.10863,4.99347 -24.41612,6.91754 -46.06897,22.52186 -60.65588,43.25247 -0.15752,-12.27663 0.2295,-24.62949 -0.20535,-36.85694 -1.41668,-5.15983 -7.97385,-2.60739 -11.91066,-3.21498 -31.0843,0 -62.1686,0 -93.2529,0 -5.55235,0.90045 -3.35501,7.55364 -3.77958,11.50116 0,111.07192 0,222.14385 0,333.21577 0.90046,5.55235 7.55365,3.35501 11.50116,3.77958 32.66821,0 65.33643,0 98.00464,0 5.5523,-0.90046 3.35508,-7.55364 3.77978,-11.50116 0.16544,-59.39125 -0.40487,-118.86276 0.55665,-178.20185 1.37855,-18.12955 4.63034,-37.82902 17.40835,-51.68677 12.20326,-13.05362 31.37153,-15.91975 48.38797,-14.84568 13.44503,0.54777 26.75732,7.29865 33.89162,18.90832 8.9639,14.54575 10.44413,32.23169 11.12633,48.90001 0.73296,61.678 0.3506,123.50627 0.45719,185.24152 0.89953,5.55281 7.55381,3.35472 11.50116,3.77958 32.66821,0 65.33643,0 98.00464,0 5.553,-0.90066 3.35429,-7.55453 3.77803,-11.50232 -0.21031,-65.90805 0.4803,-131.82657 -0.7511,-197.72669 -0.84182,-31.7436 -4.67351,-64.4916 -19.50605,-93.04477 -10.83424,-21.10505 -29.81247,-37.55838 -51.97531,-45.87213 -19.10151,-7.47863 -39.87021,-9.6366 -60.25206,-9.11859 z"
     id="path838"
     transform="scale(0.046875)" />
  <path
     style="fill:#ff6d00;stroke-width:12.6711;stroke-linejoin:bevel"
     d="m 6.6798144,167.41763 c -3.037771,3.80565 -0.9202285,9.21667 -1.549884,13.74246 0,110.27997 0,220.55994 0,330.83991 0.9004585,5.55235 7.5536476,3.35501 11.5011596,3.77958 32.470225,0 64.940447,0 97.41067,0 5.55235,-0.90046 3.35501,-7.55364 3.77958,-11.50116 0,-111.26991 0,-222.53983 0,-333.80974 -0.90046,-5.55235 -7.55364,-3.35501 -11.50115,-3.77958 -32.470231,0 -64.940453,0 -97.4106772,0 -0.7432328,0.24284 -1.4864656,0.48569 -2.2296984,0.72853 z"
     id="path840"
     transform="scale(0.046875)" />
  <path
     style="fill:#ff6d00;stroke-width:12.6711;stroke-linejoin:bevel"
     d="M 60.539444,-3.2819025 C 36.037698,-3.2637966 12.399044,12.016424 2.4854371,34.451038 -8.5131475,58.134743 -3.5937627,88.184468 14.805427,106.82097 29.139024,121.70291 50.708176,129.65968 71.252902,126.21578 96.402294,122.4626 117.97052,102.62666 124.25174,78.052202 131.10112,52.977451 121.09934,24.312535 99.895589,9.1774943 88.595797,0.86391364 74.550972,-3.5050365 60.539444,-3.2819025 Z"
     id="path842"
     transform="scale(0.046875)" />
</svg>
