<?xml version="1.0" encoding="UTF-8" standalone="no"?>
<svg
   xmlns:dc="http://purl.org/dc/elements/1.1/"
   xmlns:cc="http://creativecommons.org/ns#"
   xmlns:rdf="http://www.w3.org/1999/02/22-rdf-syntax-ns#"
   xmlns:svg="http://www.w3.org/2000/svg"
   xmlns="http://www.w3.org/2000/svg"
   xmlns:sodipodi="http://sodipodi.sourceforge.net/DTD/sodipodi-0.dtd"
   xmlns:inkscape="http://www.inkscape.org/namespaces/inkscape"
   height="512pt"
   viewBox="0 0 512 512"
   width="512pt"
   version="1.1"
   id="svg6"
   sodipodi:docname="smile.svg"
   inkscape:version="1.0.2 (1.0.2+r75+1)">
  <metadata
     id="metadata12">
    <rdf:RDF>
      <cc:Work
         rdf:about="">
        <dc:format>image/svg+xml</dc:format>
        <dc:type
           rdf:resource="http://purl.org/dc/dcmitype/StillImage" />
      </cc:Work>
    </rdf:RDF>
  </metadata>
  <defs
     id="defs10" />
  <sodipodi:namedview
     pagecolor="#ffffff"
     bordercolor="#666666"
     borderopacity="1"
     objecttolerance="10"
     gridtolerance="10"
     guidetolerance="10"
     inkscape:pageopacity="0"
     inkscape:pageshadow="2"
     inkscape:window-width="1848"
     inkscape:window-height="1043"
     id="namedview8"
     showgrid="false"
     inkscape:zoom="1.2626953"
     inkscape:cx="341.33333"
     inkscape:cy="341.33333"
     inkscape:window-x="1992"
     inkscape:window-y="0"
     inkscape:window-maximized="1"
     inkscape:current-layer="svg6"
     inkscape:document-rotation="0" />
  <path
     d="m256 0c-141.386719 0-256 114.613281-256 256s114.613281 256 256 256 256-114.613281 256-256-114.613281-256-256-256zm53.660156 165.058594.007813-.007813c15.707031-15.707031 36.589843-24.355469 58.800781-24.355469 22.207031 0 43.089844 8.652344 58.796875 24.355469 5.859375 5.855469 5.863281 15.355469.007813 21.214844-5.855469 5.859375-15.351563 5.863281-21.210938.007813-10.050781-10.046876-23.398438-15.578126-37.59375-15.578126-14.199219 0-27.546875 5.53125-37.585938 15.570313-5.859374 5.855469-15.359374 5.863281-21.21875.003906-5.859374-5.859375-5.863281-15.351562-.003906-21.210937zm-224.933594 0 .007813-.007813c15.707031-15.707031 36.589844-24.355469 58.800781-24.355469 22.207032 0 43.089844 8.652344 58.796875 24.355469 5.859375 5.855469 5.863281 15.355469.007813 21.214844-5.855469 5.859375-15.351563 5.863281-21.210938.007813-10.050781-10.046876-23.398437-15.578126-37.59375-15.578126-14.199218 0-27.546875 5.53125-37.585937 15.570313-5.859375 5.855469-15.359375 5.863281-21.21875.003906s-5.863281-15.351562-.003907-21.210937zm171.273438 268.609375c-97.019531 0-175.667969-78.648438-175.667969-175.667969 0-8.285156 6.71875-15 15-15h321.335938c8.28125 0 15 6.714844 15 15 0 97.019531-78.648438 175.667969-175.667969 175.667969zm0 0"
     id="path2" />
  <path
     d="m256 403.667969c75.957031 0 137.5-57.773438 144.910156-130.667969h-289.820312c7.410156 72.898438 68.960937 130.667969 144.910156 130.667969zm0 0"
     id="path4" />
  <path
     style="fill:#ff6d00;stroke:#000000;stroke-width:0;fill-opacity:1"
     d="m 332.22583,682.09266 c -75.40402,-1.695 -149.5297,-29.69021 -209.1015,-78.97183 C 110.7564,592.88928 87.968545,569.96879 78.088648,557.82301 45.116521,517.28898 22.51865,472.18583 10.292687,422.50889 -0.50703792,378.6271 -2.3365743,328.94053 5.2040786,284.31245 14.993935,226.37284 39.945474,171.77366 78.080475,124.84366 88.108508,112.50289 112.48964,88.119223 124.81682,78.102466 183.391,30.506549 253.49237,3.6759695 326.45666,0.92689732 376.71523,-0.96669216 421.24736,6.463188 466.29586,24.258105 577.23247,68.079932 657.45038,166.87609 677.44795,284.31245 c 5.42152,31.83809 6.00355,70.52122 1.56095,103.74633 -9.87301,73.83784 -45.67161,144.56742 -99.81224,197.20541 -66.58433,64.73634 -153.78158,98.92327 -246.97083,96.82847 z m 37.22197,-105.2668 c 78.24111,-9.06138 147.13049,-57.83577 182.16453,-128.97435 14.90305,-30.26148 22.73479,-61.03938 23.88026,-93.84687 0.46233,-13.24133 0.40337,-14.04595 -1.32236,-18.04686 -2.12464,-4.9257 -7.23584,-9.77025 -11.72801,-11.11614 -4.49232,-1.34594 -437.72545,-1.34594 -442.21778,0 -4.49373,1.34636 -9.6037,6.19047 -11.72622,11.11614 -1.72146,3.99498 -1.78286,4.82518 -1.33471,18.04686 1.44225,42.55051 14.66895,83.46311 38.66068,119.58463 33.64444,50.65447 85.03425,86.0663 144.10439,99.29985 25.91773,5.80638 52.15854,7.10548 79.51922,3.93674 z M 134.87577,253.14507 c 1.41246,-0.59017 5.05392,-3.19981 8.09212,-5.7992 15.56179,-13.31422 30.63105,-19.27954 48.63309,-19.25194 17.26957,0.0265 34.62088,6.8903 47.68054,18.86144 5.92868,5.43453 10.02778,7.22794 16.52049,7.22794 11.81516,0 20.01528,-8.34541 19.94632,-20.29973 -0.0405,-7.02377 -2.12086,-10.90293 -9.48717,-17.69053 -15.09046,-13.90492 -35.44796,-23.8464 -55.99666,-27.34567 -10.50896,-1.78959 -27.60448,-1.77961 -38.01392,0.0222 -20.20826,3.49789 -38.6502,12.35743 -54.60939,26.23445 -9.85571,8.56986 -12.708,16.08335 -9.79568,25.8038 1.21261,4.04733 6.08606,9.53038 10.34421,11.63813 3.99357,1.97679 12.64536,2.28744 16.68605,0.59913 z m 300.58981,-0.52869 c 1.89927,-0.86181 5.46308,-3.40926 7.91957,-5.66101 18.89898,-17.32376 44.98576,-23.20952 69.01083,-15.57039 8.32828,2.64811 18.2292,8.28822 25.79865,14.69636 3.88716,3.29077 8.21434,6.46777 9.61597,7.06 3.2945,1.39199 12.20775,1.38505 15.55163,-0.0121 10.68331,-4.46378 15.55478,-18.01535 10.17678,-28.31002 -5.51037,-10.54805 -28.20472,-25.75327 -48.16969,-32.27369 -15.51293,-5.06642 -36.3777,-6.52319 -52.96715,-3.69815 -21.60625,3.67936 -45.88232,16.154 -59.24618,30.44458 -4.76523,5.09567 -6.20245,8.48997 -6.23847,14.73346 -0.0479,8.30185 4.37069,15.42046 11.61402,18.71087 4.38421,1.99161 12.40585,1.93481 16.93404,-0.1199 z"
     id="path837"
     transform="scale(0.74999998)" />
  <path
     style="fill:#ff6d00;stroke:#000000;stroke-width:0;fill-opacity:1"
     d="m 321.53442,536.84385 c -36.8518,-3.74604 -73.10359,-18.83927 -102.80755,-42.80338 -14.93177,-12.04642 -32.71997,-32.45713 -42.67,-48.96081 -14.15445,-23.47738 -24.21061,-51.89755 -26.83153,-75.82985 l -0.54207,-4.94973 h 192.54777 192.54777 v 1.90119 c 0,1.04566 -0.69809,5.94589 -1.5513,10.8894 -13.7171,79.47657 -76.24703,142.71721 -155.6521,157.42124 -17.00219,3.14842 -38.18147,4.04573 -55.04099,2.33194 z"
     id="path839"
     transform="scale(0.74999998)" />
</svg>
