<?xml version="1.0" encoding="UTF-8" standalone="no"?>
<svg
   xmlns:dc="http://purl.org/dc/elements/1.1/"
   xmlns:cc="http://creativecommons.org/ns#"
   xmlns:rdf="http://www.w3.org/1999/02/22-rdf-syntax-ns#"
   xmlns:svg="http://www.w3.org/2000/svg"
   xmlns="http://www.w3.org/2000/svg"
   xmlns:sodipodi="http://sodipodi.sourceforge.net/DTD/sodipodi-0.dtd"
   xmlns:inkscape="http://www.inkscape.org/namespaces/inkscape"
   id="Capa_1"
   enable-background="new 0 0 510 510"
   height="512"
   viewBox="0 0 510 510"
   width="512"
   version="1.1"
   sodipodi:docname="witness.svg"
   inkscape:version="1.0.2 (1.0.2+r75+1)">
  <metadata
     id="metadata27">
    <rdf:RDF>
      <cc:Work
         rdf:about="">
        <dc:format>image/svg+xml</dc:format>
        <dc:type
           rdf:resource="http://purl.org/dc/dcmitype/StillImage" />
      </cc:Work>
    </rdf:RDF>
  </metadata>
  <defs
     id="defs25" />
  <sodipodi:namedview
     pagecolor="#ffffff"
     bordercolor="#666666"
     borderopacity="1"
     objecttolerance="10"
     gridtolerance="10"
     guidetolerance="10"
     inkscape:pageopacity="0"
     inkscape:pageshadow="2"
     inkscape:window-width="1848"
     inkscape:window-height="1043"
     id="namedview23"
     showgrid="false"
     inkscape:zoom="1.6835938"
     inkscape:cx="256"
     inkscape:cy="256"
     inkscape:window-x="1992"
     inkscape:window-y="0"
     inkscape:window-maximized="1"
     inkscape:current-layer="Capa_1"
     inkscape:document-rotation="0" />
  <path
     d="m103.62 255c0-37.81 13.94-72.42 36.93-98.98-50.78 19.917-99.264 52.888-136.964 90.344-4.78 4.75-4.783 12.494-.001 17.243 37.123 36.859 85.27 70.105 136.955 90.354-22.99-26.551-36.92-61.161-36.92-98.961z"
     id="path2" />
  <path
     d="m369.46 156.04c22.99 26.55 36.92 61.16 36.92 98.96 0 37.81-13.94 72.42-36.93 98.98 50.78-19.917 99.264-52.888 136.964-90.344 4.781-4.75 4.783-12.494.001-17.243-37.123-36.858-85.27-70.104-136.955-90.353z"
     id="path4" />
  <path
     d="m255 133.62c-66.93 0-121.38 54.45-121.38 121.38s54.45 121.38 121.38 121.38 121.38-54.45 121.38-121.38-54.45-121.38-121.38-121.38zm0 178.38c-31.43 0-57-25.57-57-57s25.57-57 57-57 57 25.57 57 57-25.57 57-57 57z"
     id="path6" />
  <circle
     cx="255"
     cy="255"
     r="27"
     id="circle8" />
  <path
     d="m255 64.959c8.284 0 15-6.716 15-15v-34.959c0-8.284-6.716-15-15-15s-15 6.716-15 15v34.958c0 8.285 6.716 15.001 15 15.001z"
     id="path10" />
  <path
     d="m344.385 84.994c7.193 4.103 16.356 1.6 20.461-5.598l19.938-34.958c4.104-7.196 1.599-16.357-5.598-20.461s-16.357-1.598-20.461 5.598l-19.938 34.958c-4.104 7.196-1.598 16.357 5.598 20.461z"
     id="path12" />
  <path
     d="m145.154 79.396c4.104 7.196 13.264 9.702 20.461 5.598 7.196-4.104 9.702-13.265 5.598-20.461l-19.938-34.958c-4.104-7.196-13.266-9.702-20.461-5.598-7.196 4.104-9.702 13.265-5.598 20.461z"
     id="path14" />
  <path
     d="m255 445.042c-8.284 0-15 6.716-15 15v34.958c0 8.284 6.716 15 15 15s15-6.716 15-15v-34.958c0-8.285-6.716-15-15-15z"
     id="path16" />
  <path
     d="m165.616 425.006c-7.196-4.104-16.356-1.598-20.461 5.598l-19.938 34.958c-4.104 7.196-1.598 16.357 5.598 20.461 7.197 4.104 16.357 1.597 20.461-5.598l19.938-34.958c4.104-7.196 1.598-16.357-5.598-20.461z"
     id="path18" />
  <path
     d="m364.846 430.604c-4.104-7.196-13.265-9.703-20.461-5.598-7.196 4.104-9.702 13.265-5.598 20.461l19.938 34.958c4.104 7.196 13.264 9.702 20.461 5.598 7.196-4.104 9.702-13.265 5.598-20.461z"
     id="path20" />
  <path
     style="fill:#ff460d;stroke:#000000;stroke-width:0"
     d="M 131.26682,350.96367 C 98.885773,336.93387 66.710042,317.5054 38.013921,294.65536 22.613813,282.39263 3.5901662,264.8902 1.7577894,261.29844 0.24630877,258.33569 0.23249047,253.68619 1.726526,250.77912 c 0.6229071,-1.21204 3.496225,-4.4821 6.3851506,-7.2668 C 39.560599,213.19803 77.11956,186.90264 115.43921,168.37128 c 11.56352,-5.59212 22.97972,-10.54941 23.37772,-10.15141 0.14734,0.14733 -1.00379,1.82762 -2.55806,3.73398 -11.84562,14.52908 -23.19727,37.76109 -28.1211,57.55195 -3.17598,12.76556 -3.86322,19.25767 -3.86322,36.4942 0,17.23653 0.68724,23.72864 3.86322,36.4942 4.91321,19.74821 15.77402,42.08422 27.65552,56.8755 1.75731,2.18768 3.19511,4.1255 3.19511,4.30627 0,0.57277 -0.73736,0.31376 -7.72158,-2.7123 z"
     id="path852"
     transform="scale(0.99609375)" />
  <path
     style="fill:#ff460d;stroke:#000000;stroke-width:0"
     d="m 248.87239,377.38435 c -38.6266,-2.68231 -73.33283,-22.91771 -94.60109,-55.15697 -4.2737,-6.47825 -10.38986,-18.85536 -12.91442,-26.13457 -4.7501,-13.69623 -6.65709,-25.18122 -6.65709,-40.09281 0,-19.7387 3.62019,-35.41303 12.27801,-53.16009 11.99772,-24.59327 31.26884,-43.86439 55.86211,-55.86211 17.61028,-8.5911 33.52105,-12.27706 53.16009,-12.31531 19.34838,-0.0377 35.51623,3.70783 53.16009,12.31531 24.6834,12.04168 43.82043,31.17871 55.86211,55.86211 8.61241,17.65397 12.27967,33.52995 12.27967,53.16009 0,19.63014 -3.66726,35.50612 -12.27967,53.16009 -17.61363,36.10493 -51.64736,61.04106 -91.50016,67.04115 -6.27723,0.94508 -19.16776,1.56379 -24.64965,1.18311 z m 20.66644,-65.53755 c 20.91727,-5.0794 37.15235,-21.39224 42.41347,-42.61658 1.81978,-7.34136 1.81978,-19.11908 0,-26.46044 -5.2977,-21.37192 -21.35016,-37.42438 -42.72208,-42.72208 -7.34136,-1.81978 -19.11908,-1.81978 -26.46044,0 -21.34727,5.29159 -37.43049,21.37481 -42.72208,42.72208 -1.81978,7.34136 -1.81978,19.11908 0,26.46044 5.10593,20.59831 21.15698,37.15332 40.99261,42.27967 9.17151,2.37031 19.6164,2.49378 28.49852,0.33691 z"
     id="path854"
     transform="scale(0.99609375)" />
  <path
     style="fill:#ff460d;stroke:#000000;stroke-width:0"
     d="M 249.88123,282.07783 C 238.18127,279.32443 229.27146,268.05073 229.27146,256 c 0,-20.4829 22.81177,-33.49945 40.29233,-22.99109 17.66343,10.6183 17.38842,35.83064 -0.50519,46.31495 -5.11472,2.99684 -13.20718,4.15896 -19.17737,2.75397 z"
     id="path856"
     transform="scale(0.99609375)" />
  <path
     style="fill:#ff460d;stroke:#000000;stroke-width:0"
     d="m 373.0116,353.73952 c 0,-0.21572 1.44092,-2.18214 3.20205,-4.36982 12.08851,-15.0164 23.17353,-38.09419 27.87305,-58.02863 3.07639,-13.04945 3.67429,-18.94693 3.64317,-35.93504 -0.031,-16.90576 -0.78357,-23.62858 -4.11751,-36.7809 -4.9429,-19.49962 -15.65433,-41.36672 -27.46405,-56.06712 -1.78943,-2.22743 -3.13074,-4.17264 -2.98069,-4.32269 0.51704,-0.51704 16.20917,6.52362 29.24537,13.12165 21.7725,11.01974 40.81942,22.82135 60.58469,37.5387 19.71356,14.67884 44.69278,36.80509 47.28394,41.88345 1.48567,2.91174 1.46762,7.56529 -0.0408,10.52203 -1.2914,2.53136 -13.52367,14.33654 -24.96936,24.09756 -31.0325,26.46488 -68.72169,50.18327 -103.16367,64.92252 -9.07442,3.88334 -9.09619,3.89152 -9.09619,3.41829 z"
     id="path858"
     transform="scale(0.99609375)" />
  <path
     style="fill:#ff460d;stroke:#000000;stroke-width:0"
     d="m 347.15102,85.603507 c -3.02195,-1.3727 -6.97729,-5.817227 -7.89102,-8.866968 -1.01231,-3.378792 -0.8369,-7.177018 0.46376,-10.042102 2.56586,-5.652044 21.59611,-38.280235 23.34935,-40.033474 5.23822,-5.238224 13.80913,-5.507083 19.52729,-0.612547 4.4271,3.789429 6.37048,10.385728 4.57622,15.532753 -0.79504,2.280639 -20.75234,37.40203 -22.82978,40.176452 -0.76971,1.027944 -2.79585,2.564835 -4.50254,3.415313 -3.82732,1.907236 -9.05226,2.08447 -12.69328,0.430573 z"
     id="path860"
     transform="scale(0.99609375)" />
  <path
     style="fill:#ff460d;stroke:#000000;stroke-width:0"
     d="m 249.58205,63.203947 c -3.78234,-1.884819 -6.40101,-4.939348 -7.55735,-8.815233 -1.27165,-4.262393 -1.26869,-39.18239 0.004,-43.466946 C 243.90383,4.6064387 249.33197,0.59396752 256,0.59396752 c 6.66803,0 12.09617,4.01247118 13.97162,10.32780048 1.27238,4.284556 1.27533,39.204553 0.004,43.466946 -2.56311,8.591159 -12.35182,12.822447 -20.39325,8.815233 z"
     id="path862"
     transform="scale(0.99609375)" />
  <path
     style="fill:#ff460d;stroke:#000000;stroke-width:0"
     d="m 152.1557,85.172934 c -1.70669,-0.850478 -3.7325,-2.387369 -4.5018,-3.415313 -1.77128,-2.36679 -20.26472,-34.72044 -22.11816,-38.694976 -2.71397,-5.819845 -1.14552,-12.72639 3.86386,-17.014229 5.70737,-4.885295 14.28938,-4.625365 19.50552,0.590778 1.77905,1.779043 20.20508,33.308206 23.13582,39.588184 2.49062,5.336871 1.61825,11.002785 -2.39628,15.563535 -3.06652,3.48375 -6.17232,4.898545 -10.79022,4.915301 -2.70143,0.0098 -4.3674,-0.371527 -6.69874,-1.53328 z"
     id="path864"
     transform="scale(0.99609375)" />
  <path
     style="fill:#ff460d;stroke:#000000;stroke-width:0"
     d="m 133.72411,488.61601 c -7.71661,-2.79252 -11.65222,-12.25075 -8.18837,-19.67866 1.86076,-3.99022 20.35042,-36.33299 22.12983,-38.71028 2.04416,-2.73098 7.09468,-5.03118 11.04694,-5.03118 4.43482,0 7.74261,1.48896 10.75767,4.84244 4.17642,4.64518 5.10203,10.31032 2.57076,15.73429 -2.93074,6.27998 -21.35677,37.80914 -23.13582,39.58819 -3.74155,3.74155 -10.08085,5.10086 -15.18101,3.2552 z"
     id="path866"
     transform="scale(0.99609375)" />
  <path
     style="fill:#ff460d;stroke:#000000;stroke-width:0"
     d="m 249.60297,510.14968 c -3.35109,-1.65876 -6.48941,-5.41726 -7.57459,-9.07145 -1.27237,-4.28455 -1.27533,-39.20455 -0.004,-43.46694 4.07663,-13.66425 23.87397,-13.66425 27.9506,0 1.27165,4.26239 1.2687,39.18239 -0.004,43.46694 -1.09258,3.6791 -4.2665,7.46081 -7.6271,9.08765 -3.51425,1.70122 -9.28678,1.69388 -12.74155,-0.0162 z"
     id="path868"
     transform="scale(0.99609375)" />
  <path
     style="fill:#ff460d;stroke:#000000;stroke-width:0"
     d="m 367.35573,488.31787 c -1.31398,-0.59689 -3.24116,-1.93737 -4.28262,-2.97883 -1.75324,-1.75324 -20.78349,-34.38143 -23.34935,-40.03348 -2.27533,-5.01207 -1.21183,-10.79837 2.80606,-15.26723 3.01506,-3.35348 6.32285,-4.84244 10.75767,-4.84244 3.94813,0 8.99523,2.29645 11.05745,5.03118 2.04082,2.70635 22.04303,37.92944 22.84424,40.22778 2.4303,6.97158 -2.26674,16.16533 -9.34176,18.28505 -3.34036,1.0008 -7.75004,0.82342 -10.49169,-0.42203 z"
     id="path870"
     transform="scale(0.99609375)" />
  <path
     style="fill:#ff6d00;stroke:#000000;stroke-width:0;fill-opacity:1"
     d="M 130.37587,350.2267 C 88.85925,332.0134 49.293604,305.93266 14.189516,273.63939 3.5729842,263.87294 1.6838833,261.54636 1.3232953,257.79365 c -0.6125052,-6.37446 0.6502655,-8.2609 13.3841427,-19.99447 31.150236,-28.7032 68.203477,-53.77922 104.979132,-71.04528 9.14507,-4.29359 17.92777,-8.16457 18.52422,-8.16457 0.15726,0 -1.03115,1.67053 -2.64091,3.7123 -14.52741,18.426 -25.95565,44.52995 -30.24053,69.07423 -1.49614,8.57005 -1.49614,40.67823 0,49.24828 4.27361,24.47975 14.7999,48.72226 29.59431,68.157 1.93829,2.54624 3.31169,4.61668 3.05199,4.60098 -0.25969,-0.0157 -3.67959,-1.43564 -7.59978,-3.15542 z"
     id="path849"
     transform="scale(0.99609375)" />
  <path
     style="fill:#ff6d00;stroke:#000000;stroke-width:0;fill-opacity:1"
     d="m 241.15081,376.26561 c -13.74938,-1.90389 -25.52105,-5.49863 -37.88599,-11.56931 -13.89821,-6.82345 -23.2416,-13.64345 -34.29376,-25.03195 -10.17813,-10.48787 -15.28065,-17.81636 -22.06595,-31.69219 -9.29776,-19.01378 -13.14612,-39.18655 -11.56967,-60.64735 1.20154,-16.35717 4.70956,-29.27504 11.96107,-44.04528 12.41153,-25.2804 30.70262,-43.57149 55.98302,-55.98302 19.78946,-9.71572 40.06091,-13.64971 61.73724,-11.98106 16.10317,1.23962 29.04643,4.78714 43.7037,11.9784 25.23842,12.38268 43.603,30.74726 55.98568,55.98568 7.18533,14.64516 10.70856,27.52805 11.96018,43.73303 1.65699,21.45337 -2.23163,41.76801 -11.73105,61.28451 -21.00385,43.15231 -63.20152,69.23817 -111.31115,68.8106 -3.75684,-0.0334 -9.36984,-0.41232 -12.47332,-0.84206 z m 29.40139,-64.37649 c 9.75128,-2.52092 21.70928,-9.756 28.13537,-17.02304 5.95954,-6.73945 10.94506,-15.89399 13.24119,-24.31388 1.87319,-6.86892 1.88049,-22.18552 0.0138,-29.1044 -2.69212,-9.97879 -9.77085,-21.60936 -17.22681,-28.3042 -6.35798,-5.70895 -15.70516,-10.76571 -24.16362,-13.07236 -6.86892,-1.87319 -22.18552,-1.88049 -29.1044,-0.0138 -9.92117,2.67657 -21.75084,9.85651 -28.13537,17.07655 -5.95954,6.73945 -10.94506,15.89399 -13.24119,24.31388 -1.86827,6.85089 -1.88164,22.2211 -0.0252,28.97598 5.21816,18.98693 19.29124,34.13979 37.31333,40.17624 2.902,0.97202 7.01372,2.03278 9.13716,2.35725 6.03323,0.92191 18.49893,0.36839 24.05568,-1.06815 z"
     id="path851"
     transform="scale(0.99609375)" />
  <path
     style="fill:#ff6d00;stroke:#000000;stroke-width:0;fill-opacity:1"
     d="m 246.89149,280.71906 c -6.92642,-2.92333 -11.58748,-7.31333 -14.70877,-13.85341 -5.47292,-11.46747 -1.32235,-25.85794 9.45227,-32.772 5.11094,-3.27968 9.14869,-4.34067 15.61958,-4.10434 5.16465,0.18862 6.13217,0.4175 10.14178,2.39916 5.52042,2.72834 9.91713,7.21243 12.51779,12.76656 3.62246,7.73635 2.81502,18.03608 -1.98162,25.27769 -2.61637,3.95 -6.66645,7.41141 -11.09864,9.48548 -3.46022,1.61923 -4.68382,1.86526 -10.20413,2.05174 -5.60889,0.18947 -6.63909,0.0571 -9.73826,-1.25088 z"
     id="path853"
     transform="scale(0.99609375)" />
  <path
     style="fill:#ff6d00;stroke:#000000;stroke-width:0;fill-opacity:1"
     d="m 377.03731,348.80742 c 17.02415,-22.48594 28.14528,-50.50402 30.4722,-76.7703 0.89295,-10.07961 0.3841,-33.2056 -0.89525,-40.68677 -4.1603,-24.32794 -14.70102,-48.64093 -29.53792,-68.1315 -1.93829,-2.54623 -3.38386,-4.62952 -3.21238,-4.62952 0.83219,0 14.39511,6.23441 25.28221,11.62137 26.20336,12.96547 50.21124,28.1811 73.35498,46.49066 17.25997,13.65476 36.36172,31.26447 37.67703,34.73406 0.81525,2.15051 0.81449,6.98175 -10e-4,9.12916 -0.80324,2.114 -13.14907,14.22223 -24.06482,23.60169 -31.43047,27.00668 -68.23637,50.20734 -105.13853,66.27409 -3.75221,1.63367 -6.95704,2.97031 -7.12183,2.97031 -0.1648,0 1.26868,-2.07146 3.1855,-4.60325 z"
     id="path855"
     transform="scale(0.99609375)" />
  <path
     style="fill:#ff6d00;stroke:#000000;stroke-width:0;fill-opacity:1"
     d="m 349.88122,86.040084 c -3.04978,-0.561501 -6.11511,-2.828669 -8.62891,-6.382077 -1.4582,-2.061236 -1.80481,-3.216725 -1.99973,-6.666426 -0.27623,-4.888612 -0.21045,-5.034898 11.05555,-24.583222 11.83044,-20.527717 12.91253,-22.065275 17.01244,-24.173249 2.82347,-1.451693 8.0591,-1.618965 11.03673,-0.35261 5.34357,2.272553 8.89318,7.649036 8.90371,13.486151 0.005,2.75933 -0.45761,4.091091 -3.2607,9.387238 -4.27826,8.083312 -17.21629,30.663493 -19.38419,33.830398 -2.8491,4.162007 -9.12818,6.486065 -14.7349,5.453797 z"
     id="path857"
     transform="scale(0.99609375)" />
  <path
     style="fill:#ff6d00;stroke:#000000;stroke-width:0;fill-opacity:1"
     d="m 249.52858,62.58334 c -3.52633,-1.757241 -6.21967,-4.998935 -7.28845,-8.772323 -0.9494,-3.351947 -0.94899,-38.935077 4.9e-4,-42.287423 3.95234,-13.9545225 23.56642,-13.9545225 27.51876,0 0.94948,3.352346 0.94989,38.935476 4.9e-4,42.287423 -2.46417,8.69993 -12.04235,12.853046 -20.23129,8.772323 z"
     id="path859"
     transform="scale(0.99609375)" />
  <path
     style="fill:#ff6d00;stroke:#000000;stroke-width:0;fill-opacity:1"
     d="m 151.6641,84.356579 c -3.5047,-2.01007 -4.19874,-3.033703 -15.51373,-22.880935 -10.69102,-18.752771 -11.41719,-20.30359 -11.41719,-24.382861 0,-7.992244 6.23072,-14.123133 14.30356,-14.074394 3.75794,0.02269 7.09936,1.462737 9.51631,4.101235 2.45815,2.683464 16.66576,26.622973 21.84052,36.800772 3.71135,7.299544 3.37572,12.547229 -1.13078,17.679841 -2.90555,3.309242 -5.73294,4.526074 -10.50131,4.519487 -3.37616,-0.0048 -4.53199,-0.291799 -7.09738,-1.763145 z"
     id="path861"
     transform="scale(0.99609375)" />
  <path
     style="fill:#ff6d00;stroke:#000000;stroke-width:0;fill-opacity:1"
     d="m 133.04873,487.8883 c -4.82624,-2.09049 -8.29956,-7.62414 -8.30975,-13.23903 -0.007,-3.85258 0.81634,-5.56192 12.62139,-26.2038 10.90956,-19.07607 11.13651,-19.39348 15.21545,-21.28039 6.19192,-2.86437 12.38619,-1.66364 16.68697,3.23468 2.64266,3.00982 3.58176,5.49898 3.58176,9.49371 0,3.92102 -1.42121,6.98776 -10.56949,22.80722 -12.20567,21.10637 -13.65606,23.16215 -17.64397,25.00849 -2.92043,1.35211 -8.66905,1.44101 -11.58236,0.17912 z"
     id="path863"
     transform="scale(0.99609375)" />
  <path
     style="fill:#ff6d00;stroke:#000000;stroke-width:0;fill-opacity:1"
     d="m 252.97379,510.83567 c -4.62446,-0.86766 -9.37881,-5.36085 -10.57866,-9.99754 -0.89049,-3.44122 -1.36646,-24.41964 -0.77768,-34.27665 0.70033,-11.72476 2.08468,-14.5896 8.44288,-17.47213 4.99488,-2.26446 12.00759,-1.16007 15.94643,2.51132 3.03437,2.82833 3.80938,5.47807 4.37579,14.96081 0.58333,9.76583 0.11569,30.82273 -0.75976,34.21008 -1.77236,6.85779 -9.34394,11.43471 -16.649,10.06411 z"
     id="path865"
     transform="scale(0.99609375)" />
  <path
     style="fill:#ff6d00;stroke:#000000;stroke-width:0;fill-opacity:1"
     d="m 367.36891,487.90309 c -0.98005,-0.50868 -2.53494,-1.64299 -3.4553,-2.52071 -2.07853,-1.9822 -16.51266,-26.13039 -22.64455,-37.88416 -2.68687,-5.15026 -2.9654,-9.28369 -0.90275,-13.39696 3.99278,-7.96228 11.55031,-10.60028 19.29205,-6.73401 4.13604,2.06556 3.98285,1.85587 13.6101,18.62978 12.19262,21.24367 13.99921,24.94038 13.99255,28.63212 -0.0103,5.71365 -3.51196,11.22544 -8.43915,13.28365 -2.86807,1.19806 -9.1362,1.19274 -11.45295,-0.01 z"
     id="path867"
     transform="scale(0.99609375)" />
</svg>
